# xmcd
#
# Track frame offsets:
#	150
#	18301
#	34238
#	54965
#	68210
#	86600
#	101919
#	119101
#	131927
#	141191
#	156942
#	176088
#	191017
#	204433
#	219284
#
# Disc length: 3165 seconds
#
# Revision: 3
# Processed by: cddbd v1.5.2PL0 Copyright (c) Steve Scherf et al.
# Submitted via: EZCDAudioConverter 2.1.7.1
#
DISCID=e20c5b0f
DTITLE=V/A - Communion
DYEAR=2011
DGENRE=MOJO
TTITLE0=Michael Kiwanuka - Tell Me A Tale
TTITLE1=Ben Howard - Three Tree Town
TTITLE2=Marcus Foster - Circle In The Square
TTITLE3=Jay Jay Pistolet - Vintage Red
TTITLE4=Benjamin Francis Leftwich - More Than Letters
TTITLE5=Mumford and Sons - Sister
TTITLE6=Kyla La Grange - Walk Through Walls [Communion Version]
TTITLE7=Johnny Flynn - In The Honour Of Industry
TTITLE8=Alessi's Ark - Hands In The Sink
TTITLE9=To Kill A King - Fictional State
TTITLE10=Three Blind Wolves - Emily Rose
TTITLE11=Matthew and The Atlas - I Will Remain
TTITLE12=Jesse Quin and The Mets - The Sculptor And The Stone
TTITLE13=Daughter - Peter
TTITLE14=Nathaniel Rateliff - Early Spring Till
EXTD=
EXTT0=
EXTT1=
EXTT2=
EXTT3=
EXTT4=
EXTT5=
EXTT6=
EXTT7=
EXTT8=
EXTT9=
EXTT10=
EXTT11=
EXTT12=
EXTT13=
EXTT14=
PLAYORDER=
